<mxfile host="app.diagrams.net" modified="2023-12-29T03:55:32.818Z" agent="Mozilla/5.0 (Windows NT 10.0; Win64; x64) AppleWebKit/537.36 (KHTML, like Gecko) Chrome/120.0.0.0 Safari/537.36" etag="eaaCS_gOwAaHVUGRsHbJ" version="22.1.15" type="github">
  <diagram id="C5RBs43oDa-KdzZeNtuy" name="Page-1">
    <mxGraphModel dx="1434" dy="780" grid="1" gridSize="10" guides="1" tooltips="1" connect="1" arrows="1" fold="1" page="1" pageScale="1" pageWidth="827" pageHeight="1169" math="0" shadow="0">
      <root>
        <mxCell id="WIyWlLk6GJQsqaUBKTNV-0" />
        <mxCell id="WIyWlLk6GJQsqaUBKTNV-1" parent="WIyWlLk6GJQsqaUBKTNV-0" />
        <mxCell id="b263ChiSaqbmm_TudtIw-0" value="MBTI Login Process" style="text;html=1;strokeColor=none;fillColor=none;align=center;verticalAlign=middle;whiteSpace=wrap;rounded=0;" vertex="1" parent="WIyWlLk6GJQsqaUBKTNV-1">
          <mxGeometry x="20" y="10" width="60" height="30" as="geometry" />
        </mxCell>
        <mxCell id="b263ChiSaqbmm_TudtIw-5" value="" style="edgeStyle=orthogonalEdgeStyle;rounded=0;orthogonalLoop=1;jettySize=auto;html=1;" edge="1" parent="WIyWlLk6GJQsqaUBKTNV-1" source="b263ChiSaqbmm_TudtIw-2">
          <mxGeometry relative="1" as="geometry">
            <mxPoint x="414" y="120" as="targetPoint" />
          </mxGeometry>
        </mxCell>
        <mxCell id="b263ChiSaqbmm_TudtIw-2" value="회원가입" style="strokeWidth=2;html=1;shape=mxgraph.flowchart.terminator;whiteSpace=wrap;" vertex="1" parent="WIyWlLk6GJQsqaUBKTNV-1">
          <mxGeometry x="364" y="30" width="100" height="50" as="geometry" />
        </mxCell>
        <mxCell id="b263ChiSaqbmm_TudtIw-8" value="" style="edgeStyle=orthogonalEdgeStyle;rounded=0;orthogonalLoop=1;jettySize=auto;html=1;" edge="1" parent="WIyWlLk6GJQsqaUBKTNV-1" target="b263ChiSaqbmm_TudtIw-7">
          <mxGeometry relative="1" as="geometry">
            <mxPoint x="414" y="180" as="sourcePoint" />
            <mxPoint x="414" y="300" as="targetPoint" />
          </mxGeometry>
        </mxCell>
        <mxCell id="b263ChiSaqbmm_TudtIw-16" value="" style="edgeStyle=orthogonalEdgeStyle;rounded=0;orthogonalLoop=1;jettySize=auto;html=1;" edge="1" parent="WIyWlLk6GJQsqaUBKTNV-1" source="b263ChiSaqbmm_TudtIw-7" target="b263ChiSaqbmm_TudtIw-15">
          <mxGeometry relative="1" as="geometry" />
        </mxCell>
        <mxCell id="b263ChiSaqbmm_TudtIw-18" value="" style="edgeStyle=orthogonalEdgeStyle;rounded=0;orthogonalLoop=1;jettySize=auto;html=1;" edge="1" parent="WIyWlLk6GJQsqaUBKTNV-1" source="b263ChiSaqbmm_TudtIw-7" target="b263ChiSaqbmm_TudtIw-17">
          <mxGeometry relative="1" as="geometry" />
        </mxCell>
        <mxCell id="b263ChiSaqbmm_TudtIw-7" value="회원유무" style="strokeWidth=2;html=1;shape=mxgraph.flowchart.decision;whiteSpace=wrap;" vertex="1" parent="WIyWlLk6GJQsqaUBKTNV-1">
          <mxGeometry x="364" y="120" width="100" height="90" as="geometry" />
        </mxCell>
        <mxCell id="b263ChiSaqbmm_TudtIw-27" value="" style="edgeStyle=orthogonalEdgeStyle;rounded=0;orthogonalLoop=1;jettySize=auto;html=1;" edge="1" parent="WIyWlLk6GJQsqaUBKTNV-1" source="b263ChiSaqbmm_TudtIw-15" target="b263ChiSaqbmm_TudtIw-26">
          <mxGeometry relative="1" as="geometry" />
        </mxCell>
        <mxCell id="b263ChiSaqbmm_TudtIw-15" value="로그인 화면" style="whiteSpace=wrap;html=1;strokeWidth=2;" vertex="1" parent="WIyWlLk6GJQsqaUBKTNV-1">
          <mxGeometry x="520" y="270" width="120" height="60" as="geometry" />
        </mxCell>
        <mxCell id="b263ChiSaqbmm_TudtIw-37" value="" style="edgeStyle=orthogonalEdgeStyle;rounded=0;orthogonalLoop=1;jettySize=auto;html=1;" edge="1" parent="WIyWlLk6GJQsqaUBKTNV-1" source="b263ChiSaqbmm_TudtIw-17" target="b263ChiSaqbmm_TudtIw-36">
          <mxGeometry relative="1" as="geometry" />
        </mxCell>
        <mxCell id="b263ChiSaqbmm_TudtIw-17" value="약관 보기" style="whiteSpace=wrap;html=1;strokeWidth=2;" vertex="1" parent="WIyWlLk6GJQsqaUBKTNV-1">
          <mxGeometry x="200" y="270" width="120" height="60" as="geometry" />
        </mxCell>
        <mxCell id="b263ChiSaqbmm_TudtIw-22" value="" style="edgeStyle=orthogonalEdgeStyle;rounded=0;orthogonalLoop=1;jettySize=auto;html=1;" edge="1" parent="WIyWlLk6GJQsqaUBKTNV-1" target="b263ChiSaqbmm_TudtIw-21">
          <mxGeometry relative="1" as="geometry">
            <mxPoint x="580" y="480" as="sourcePoint" />
          </mxGeometry>
        </mxCell>
        <mxCell id="b263ChiSaqbmm_TudtIw-47" style="edgeStyle=orthogonalEdgeStyle;rounded=0;orthogonalLoop=1;jettySize=auto;html=1;entryX=1;entryY=0.5;entryDx=0;entryDy=0;" edge="1" parent="WIyWlLk6GJQsqaUBKTNV-1" source="b263ChiSaqbmm_TudtIw-21" target="b263ChiSaqbmm_TudtIw-46">
          <mxGeometry relative="1" as="geometry">
            <mxPoint x="580" y="1050" as="targetPoint" />
            <Array as="points">
              <mxPoint x="580" y="1050" />
            </Array>
          </mxGeometry>
        </mxCell>
        <mxCell id="b263ChiSaqbmm_TudtIw-21" value="로그인 처리" style="whiteSpace=wrap;html=1;strokeWidth=2;" vertex="1" parent="WIyWlLk6GJQsqaUBKTNV-1">
          <mxGeometry x="520" y="900" width="120" height="60" as="geometry" />
        </mxCell>
        <mxCell id="b263ChiSaqbmm_TudtIw-26" value="ID/PW 체크" style="rhombus;whiteSpace=wrap;html=1;strokeWidth=2;" vertex="1" parent="WIyWlLk6GJQsqaUBKTNV-1">
          <mxGeometry x="540" y="400" width="80" height="80" as="geometry" />
        </mxCell>
        <mxCell id="b263ChiSaqbmm_TudtIw-28" style="edgeStyle=orthogonalEdgeStyle;rounded=0;orthogonalLoop=1;jettySize=auto;html=1;entryX=0.992;entryY=0.4;entryDx=0;entryDy=0;entryPerimeter=0;" edge="1" parent="WIyWlLk6GJQsqaUBKTNV-1" source="b263ChiSaqbmm_TudtIw-26" target="b263ChiSaqbmm_TudtIw-15">
          <mxGeometry relative="1" as="geometry">
            <Array as="points">
              <mxPoint x="660" y="440" />
              <mxPoint x="660" y="294" />
            </Array>
          </mxGeometry>
        </mxCell>
        <mxCell id="b263ChiSaqbmm_TudtIw-29" value="NO(로그인 실패)" style="text;html=1;strokeColor=none;fillColor=none;align=center;verticalAlign=middle;whiteSpace=wrap;rounded=0;" vertex="1" parent="WIyWlLk6GJQsqaUBKTNV-1">
          <mxGeometry x="660" y="370" width="100" height="30" as="geometry" />
        </mxCell>
        <mxCell id="b263ChiSaqbmm_TudtIw-35" value="[시스템 안내 메세지]&lt;br&gt;&lt;br&gt;ID 또는 PW 를 확인해주세요 등록되지않은 ID 이거나. ID 또는 PW를 잘못 입력하셧습니다&amp;nbsp;&lt;br&gt;" style="rounded=0;whiteSpace=wrap;html=1;" vertex="1" parent="WIyWlLk6GJQsqaUBKTNV-1">
          <mxGeometry x="770" y="322.5" width="180" height="125" as="geometry" />
        </mxCell>
        <mxCell id="b263ChiSaqbmm_TudtIw-39" value="" style="edgeStyle=orthogonalEdgeStyle;rounded=0;orthogonalLoop=1;jettySize=auto;html=1;" edge="1" parent="WIyWlLk6GJQsqaUBKTNV-1" source="b263ChiSaqbmm_TudtIw-36" target="b263ChiSaqbmm_TudtIw-38">
          <mxGeometry relative="1" as="geometry" />
        </mxCell>
        <mxCell id="b263ChiSaqbmm_TudtIw-41" value="" style="edgeStyle=orthogonalEdgeStyle;rounded=0;orthogonalLoop=1;jettySize=auto;html=1;" edge="1" parent="WIyWlLk6GJQsqaUBKTNV-1" source="b263ChiSaqbmm_TudtIw-36" target="b263ChiSaqbmm_TudtIw-40">
          <mxGeometry relative="1" as="geometry" />
        </mxCell>
        <mxCell id="b263ChiSaqbmm_TudtIw-36" value="필수 약관&amp;nbsp;&lt;br&gt;동의 체크" style="rhombus;whiteSpace=wrap;html=1;strokeWidth=2;" vertex="1" parent="WIyWlLk6GJQsqaUBKTNV-1">
          <mxGeometry x="220" y="400" width="80" height="80" as="geometry" />
        </mxCell>
        <mxCell id="b263ChiSaqbmm_TudtIw-38" value="[시스템 안내 메세지]&lt;br&gt;&lt;br&gt;이용약관 및 개인정보 수집 이용안내에 모두 동의해주세요." style="whiteSpace=wrap;html=1;strokeWidth=2;" vertex="1" parent="WIyWlLk6GJQsqaUBKTNV-1">
          <mxGeometry x="30" y="390" width="130" height="100" as="geometry" />
        </mxCell>
        <mxCell id="b263ChiSaqbmm_TudtIw-43" value="" style="edgeStyle=orthogonalEdgeStyle;rounded=0;orthogonalLoop=1;jettySize=auto;html=1;" edge="1" parent="WIyWlLk6GJQsqaUBKTNV-1" source="b263ChiSaqbmm_TudtIw-40" target="b263ChiSaqbmm_TudtIw-42">
          <mxGeometry relative="1" as="geometry" />
        </mxCell>
        <mxCell id="b263ChiSaqbmm_TudtIw-40" value="회원정보 입력" style="shape=parallelogram;perimeter=parallelogramPerimeter;whiteSpace=wrap;html=1;fixedSize=1;strokeWidth=2;" vertex="1" parent="WIyWlLk6GJQsqaUBKTNV-1">
          <mxGeometry x="200" y="570" width="120" height="60" as="geometry" />
        </mxCell>
        <mxCell id="b263ChiSaqbmm_TudtIw-45" value="" style="edgeStyle=orthogonalEdgeStyle;rounded=0;orthogonalLoop=1;jettySize=auto;html=1;" edge="1" parent="WIyWlLk6GJQsqaUBKTNV-1" source="b263ChiSaqbmm_TudtIw-42" target="b263ChiSaqbmm_TudtIw-44">
          <mxGeometry relative="1" as="geometry" />
        </mxCell>
        <mxCell id="b263ChiSaqbmm_TudtIw-53" style="edgeStyle=orthogonalEdgeStyle;rounded=0;orthogonalLoop=1;jettySize=auto;html=1;entryX=1;entryY=0.5;entryDx=0;entryDy=0;" edge="1" parent="WIyWlLk6GJQsqaUBKTNV-1" source="b263ChiSaqbmm_TudtIw-42" target="b263ChiSaqbmm_TudtIw-40">
          <mxGeometry relative="1" as="geometry">
            <Array as="points">
              <mxPoint x="340" y="770" />
              <mxPoint x="340" y="600" />
            </Array>
          </mxGeometry>
        </mxCell>
        <mxCell id="b263ChiSaqbmm_TudtIw-42" value="데이터&lt;br&gt;유효성 체크" style="rhombus;whiteSpace=wrap;html=1;strokeWidth=2;" vertex="1" parent="WIyWlLk6GJQsqaUBKTNV-1">
          <mxGeometry x="220" y="730" width="80" height="80" as="geometry" />
        </mxCell>
        <mxCell id="b263ChiSaqbmm_TudtIw-48" style="edgeStyle=orthogonalEdgeStyle;rounded=0;orthogonalLoop=1;jettySize=auto;html=1;entryX=0;entryY=0.5;entryDx=0;entryDy=0;exitX=0.5;exitY=1;exitDx=0;exitDy=0;" edge="1" parent="WIyWlLk6GJQsqaUBKTNV-1" source="b263ChiSaqbmm_TudtIw-44" target="b263ChiSaqbmm_TudtIw-46">
          <mxGeometry relative="1" as="geometry" />
        </mxCell>
        <mxCell id="b263ChiSaqbmm_TudtIw-44" value="회원가입 성공 및&lt;br&gt;자동 로그인" style="whiteSpace=wrap;html=1;strokeWidth=2;" vertex="1" parent="WIyWlLk6GJQsqaUBKTNV-1">
          <mxGeometry x="200" y="900" width="120" height="60" as="geometry" />
        </mxCell>
        <mxCell id="b263ChiSaqbmm_TudtIw-46" value="메인화면 이동" style="whiteSpace=wrap;html=1;strokeWidth=2;" vertex="1" parent="WIyWlLk6GJQsqaUBKTNV-1">
          <mxGeometry x="354" y="1020" width="120" height="60" as="geometry" />
        </mxCell>
        <mxCell id="b263ChiSaqbmm_TudtIw-49" value="NO" style="text;html=1;strokeColor=none;fillColor=none;align=center;verticalAlign=middle;whiteSpace=wrap;rounded=0;" vertex="1" parent="WIyWlLk6GJQsqaUBKTNV-1">
          <mxGeometry x="150" y="440" width="100" height="30" as="geometry" />
        </mxCell>
        <mxCell id="b263ChiSaqbmm_TudtIw-50" value="YES" style="text;html=1;strokeColor=none;fillColor=none;align=center;verticalAlign=middle;whiteSpace=wrap;rounded=0;" vertex="1" parent="WIyWlLk6GJQsqaUBKTNV-1">
          <mxGeometry x="580" y="660" width="50" height="30" as="geometry" />
        </mxCell>
        <mxCell id="b263ChiSaqbmm_TudtIw-54" value="NO" style="text;html=1;strokeColor=none;fillColor=none;align=center;verticalAlign=middle;whiteSpace=wrap;rounded=0;" vertex="1" parent="WIyWlLk6GJQsqaUBKTNV-1">
          <mxGeometry x="310" y="660" width="100" height="30" as="geometry" />
        </mxCell>
        <mxCell id="b263ChiSaqbmm_TudtIw-55" value="YES" style="text;html=1;strokeColor=none;fillColor=none;align=center;verticalAlign=middle;whiteSpace=wrap;rounded=0;" vertex="1" parent="WIyWlLk6GJQsqaUBKTNV-1">
          <mxGeometry x="260" y="830" width="50" height="30" as="geometry" />
        </mxCell>
        <mxCell id="b263ChiSaqbmm_TudtIw-56" value="[필수정보 실시간 &lt;br&gt;유효성 체크]&lt;br&gt;&lt;br&gt;1.아이디 중복체크&lt;br&gt;2.비밀번호 규칙 체크&lt;br&gt;3.비밀번호 재확인 체크&lt;br&gt;4.생년월일 입력 체크&lt;br&gt;5.휴대폰번호 인증 체크&lt;br&gt;" style="whiteSpace=wrap;html=1;strokeWidth=2;" vertex="1" parent="WIyWlLk6GJQsqaUBKTNV-1">
          <mxGeometry x="10" y="550" width="140" height="260" as="geometry" />
        </mxCell>
        <mxCell id="b263ChiSaqbmm_TudtIw-58" value="" style="endArrow=none;dashed=1;html=1;dashPattern=1 3;strokeWidth=2;rounded=0;exitX=1.023;exitY=0.192;exitDx=0;exitDy=0;entryX=0;entryY=0.5;entryDx=0;entryDy=0;exitPerimeter=0;" edge="1" parent="WIyWlLk6GJQsqaUBKTNV-1" source="b263ChiSaqbmm_TudtIw-56" target="b263ChiSaqbmm_TudtIw-40">
          <mxGeometry width="50" height="50" relative="1" as="geometry">
            <mxPoint x="390" y="630" as="sourcePoint" />
            <mxPoint x="440" y="580" as="targetPoint" />
          </mxGeometry>
        </mxCell>
        <mxCell id="b263ChiSaqbmm_TudtIw-59" value="[시스템 안내 메세지]&lt;br&gt;&lt;br&gt;회원가입을 &lt;br&gt;축하드립니다." style="whiteSpace=wrap;html=1;strokeWidth=2;" vertex="1" parent="WIyWlLk6GJQsqaUBKTNV-1">
          <mxGeometry x="310" y="810" width="130" height="75" as="geometry" />
        </mxCell>
        <mxCell id="b263ChiSaqbmm_TudtIw-60" value="[시스템 안내 메세지]&lt;br&gt;&lt;br&gt;환영합니다 [ID] 님." style="whiteSpace=wrap;html=1;strokeWidth=2;" vertex="1" parent="WIyWlLk6GJQsqaUBKTNV-1">
          <mxGeometry x="630" y="630" width="130" height="100" as="geometry" />
        </mxCell>
      </root>
    </mxGraphModel>
  </diagram>
</mxfile>
